<?xml version="1.0" encoding="UTF-8"?>
<!DOCTYPE svg PUBLIC "-//W3C//DTD SVG 1.1//EN" "http://www.w3.org/Graphics/SVG/1.1/DTD/svg11.dtd">
<!-- Creator: CorelDRAW 2018 (64 Bit Versión de evaluación) -->
<svg xmlns="http://www.w3.org/2000/svg" xml:space="preserve" width="36.5893mm" height="42.1916mm" version="1.1" style="shape-rendering:geometricPrecision; text-rendering:geometricPrecision; image-rendering:optimizeQuality; fill-rule:evenodd; clip-rule:evenodd"
viewBox="0 0 10423.69 12019.69"
 xmlns:xlink="http://www.w3.org/1999/xlink">
 <defs>
  <style type="text/css">
   <![CDATA[
    .fil0 {fill:black}
   ]]>
  </style>
 </defs>
 <g id="Capa_x0020_1">
  <metadata id="CorelCorpID_0Corel-Layer"/>
  <path class="fil0" d="M6383.27 10852.18c265.03,-0.2 440.66,-82.02 374.34,208.19 -213.18,932.71 -1604.32,743.4 -1577.31,-192.15 192.72,-47.35 951.82,-15.87 1202.98,-16.04zm-1600.87 -634.49c0,-142.95 20.43,-146.66 167.45,-146.66 448.69,-0.57 1858.38,-42.33 2199.47,22.9 31.19,102.3 17.92,282.18 18.12,414.93 -503.47,28.2 -1673.83,6.3 -2245.45,6.3 -166.88,0 -139.59,-36.07 -139.59,-297.48zm2396.81 -514.47c-176.4,64.7 -2050.65,45.98 -2402.22,30.8l-58.52 -425.42 2518.37 2.39 -57.63 392.23zm3140.04 -6140.41c-364.51,-1544.52 -1358.41,-2762.52 -2841.97,-3275.02 -310.41,-107.23 -1413.36,-388.35 -1757.47,-250.53l28.6 321.32c326.19,31.02 594.1,3.13 929.4,58.83 1688.28,280.55 3129.99,1678.93 3366.55,3465.24 162.27,1225.08 -218.45,2310.09 -793.26,3062.87 -301.89,395.36 -588.6,643.84 -1006.32,949.49 -761.32,557.03 -768.73,978.63 -898.27,1053.87 -190.13,34.41 -2635.43,30.54 -2759.18,-8.01l-353.63 -559.94c-297.42,-407.64 -958.66,-735.77 -1440.03,-1308.04 -236.94,-281.66 -506.38,-756.11 -663.41,-1167.51 -298.81,-782.8 -198.71,-1337.76 -278.82,-1540.85l-311.66 -1.79c-70.05,392.8 127.46,1228.73 242.86,1570.82 158.05,468.58 392.17,866.39 635.69,1192.75 272.72,365.48 550.31,623.64 920.09,911.83 175.17,136.54 344.99,270.41 505.9,410.4 71.16,61.91 376.7,409.89 329.92,517.41l-505.87 2.65 21.59 324.17c455.61,42.53 727.11,-187.77 746.91,444.08l-377.56 7.89c0,497.89 24.93,251.38 372.54,343.74 36.18,169.48 -5.75,388.01 17.01,575.78 29.31,241.84 192.95,124.78 356.62,214.86 61.93,91.16 72.45,332.86 129.88,464.08 160.47,366.7 586.72,681.9 1051.82,676.43 341.97,-4.05 649.34,-187.91 809.01,-349.61 335.59,-339.81 260.21,-705.29 351.26,-789.01 176.43,-104.69 327.39,56.29 357.04,-240.73 17.69,-176.83 -5.53,-377.5 7.49,-565.75l380.86 -8.72 2.71 -326.68 -366.1 -4.59c-19.66,-112.1 26.27,-348.36 95.72,-407.01 151.5,-104.3 488.32,56.55 627.6,-60.25 46.35,-54.58 29.26,-206.57 23.3,-300.52 -154.15,-28.49 -390.72,30.62 -508.15,-32.85 -40.94,-95.07 328.5,-485.33 426.13,-569.48 567.6,-489.15 1019.91,-684.77 1529.91,-1514.98 539.48,-878.24 883.45,-2065.6 595.26,-3286.62z"/>
  <path class="fil0" d="M3106.37 4058.51c81.56,22.16 167.31,97.15 290.01,133.41 542.76,160.39 1157.65,-260.64 1169.28,-853.34l-284.66 3.62c-115.58,279.61 -136.83,470.88 -481.34,557.23 -697.14,174.72 -1010.82,-707.85 -575.15,-1069.99 353.65,-293.94 363.51,-4.27 765.34,28.86l-0.17 -263.29c-93.58,-131.02 -255.14,-36.01 -354.85,-300.5 -74.7,-198.02 -17.24,-352.71 98.31,-466.64 111.62,-110.08 273.66,-173.64 465.1,-93.64 168.48,70.37 210.87,187.8 263,353.06l298.24 0c-9.91,-266 -171.9,-346.36 -143.55,-504.47 25.01,-139.42 204.23,-253.75 362.31,-265.6 506.38,-37.97 452.85,525.18 452.82,733.29l0.03 4900.34c0.34,215.51 21.57,364.94 -99.85,507.86 -274.54,323.23 -727.65,67.15 -721.67,-160.28 2.51,-94.75 131.53,-229.87 150.96,-459.4l-284.37 11.71c-96.86,157.03 -88.23,266.59 -277.68,344.79 -342.86,141.53 -708.31,-205.26 -563.7,-563.13 78.06,-193.18 165.94,-177.37 352.8,-275.48l2.88 -287.36c-350.69,66.83 -458.78,293.8 -765.82,28.12 -431.34,-373.25 -125.15,-1237.62 575.89,-1071.45 396.79,94.07 429.21,465.7 478.92,558.88l284.66 -6.72c26.18,-439.6 -402.17,-812.6 -814.17,-871.49 -386.64,-55.27 -455.36,130.82 -688.39,169.05 -246.85,40.51 -430.72,-188.82 -426.33,-424.82 4.3,-231.24 212.47,-462.94 471.14,-392.63zm-310.75 -300.3c-113.04,111.28 -200.36,116.15 -315.62,257.91 -192.98,237.28 -211.01,644.95 -9.69,880.46 110.56,129.34 220.19,164.55 327.87,272.32 42.19,95.58 -202.87,382.14 8.15,853.17 171.76,383.37 442.82,370.89 507.52,515.13 52.39,116.83 -152.21,790.49 533.93,967.24 182.84,47.12 386.99,-22.96 467.01,5.04 112.33,39.31 204.55,379.15 631.9,408.12 337.36,22.88 585.72,-171.96 696.31,-369.47 171.44,-306.14 104.15,-1537.12 104.15,-1983.25 0,-701.24 0,-1402.45 0,-2103.67 0,-416.53 51.22,-1733.66 -73.02,-2013.3 -187.54,-422.17 -688.28,-550.85 -1032.39,-345.88 -168.48,100.39 -155.95,156.89 -270.38,275.51 -114.47,118.65 -468.04,-87.49 -803.2,186.29 -83.3,68.06 -170.67,172.75 -218.33,301.66 -91.19,246.62 -12.11,293.06 -22.19,484.53 -6.12,116.12 -178.22,165.03 -272.46,235.91 -538.8,405.25 -251.69,1060.31 -259.56,1172.27z"/>
  <path class="fil0" d="M7196.9 2081.84l251.38 0c102.22,-62.73 76.01,-232.66 287.05,-338.13 327.84,-163.81 720.61,160.28 587.54,536.61 -75.95,214.86 -156.97,182.01 -351.15,289.93l-6.15 288.5c400.18,-41.37 391.86,-310.01 743.23,-38.43 467.47,361.29 147.91,1241.86 -542.62,1086.03 -152.1,-34.3 -249.02,-114.07 -323,-196.68 -139.45,-155.72 -92.42,-196.63 -170.45,-370.8l-277.11 0.54c-41.45,454.33 399.38,823.97 800.24,879.21 397.18,54.73 423.62,-107.57 673.46,-155.97 601.96,-116.6 569.88,904.02 17.86,815.45 -210.24,-33.73 -295.22,-211.7 -668.68,-174.46 -400.77,39.94 -886.67,449.66 -819.67,881.03l271.86 0c67.12,-143.58 41.45,-219.16 162.3,-353.37 598.31,-664.32 1536.09,267.51 888.58,863.37 -340.75,313.57 -369.04,-3.16 -758.96,-24.24l3.62 291.12c512.7,187 432.14,567.57 253.83,741.67 -108.2,105.61 -285.68,164.21 -468.18,90.56 -232.52,-93.81 -183.52,-275.48 -303.63,-353.28l-256.57 0c17.58,249.19 149.45,340.98 150.87,457.27 3.11,248.5 -463.36,474.07 -725.6,161.76 -121.56,-144.81 -98.26,-290.18 -97.97,-508.66l0.03 -4900.34c-0.11,-382.54 19.37,-785.94 483.7,-727.93 157.91,19.71 327.79,147.28 337.99,286.82 8.06,110.76 -133.84,244.86 -143.84,472.45zm420.86 5415.18c185.74,-7.72 508.94,141.56 827.96,-193.04 77.89,-81.68 152.7,-195.71 187.82,-330.98 47.46,-182.78 -25.55,-359.64 0.91,-438.78 60.74,-115.89 353.23,-171.53 511.91,-508.55 187.28,-397.75 51.17,-522.19 -18.97,-866.07 509.06,-216.48 641.96,-749.61 353.83,-1130.85 -117.17,-155.01 -201.27,-151.1 -327.7,-270.55 -2.54,-134.04 74.41,-249.81 81.08,-420.4 6.35,-162.9 -28.86,-309.58 -88.66,-435.93 -152.18,-321.63 -299.95,-301.01 -519.43,-491.62 -29.63,-246.34 112.07,-333.91 -65.38,-629.28 -91.42,-152.18 -229.1,-297.82 -434.82,-354.77 -368.64,-102.07 -404.51,147.77 -608.2,-138.14 -344,-482.85 -1291.01,-351.49 -1302.91,513.93 -21.14,1534.67 0.28,3207.13 0.28,4752.83 0,567 -67.52,979.8 332.6,1245.85 173.66,115.43 419.35,150.7 639.08,76.92 257.28,-86.43 299.1,-211.44 430.6,-380.58z"/>
  <path class="fil0" d="M1950.74 1132.7c59.06,-47.66 115.63,-89.68 174.63,-144.44 72.82,-67.55 90.93,-107.71 176,-146.69 107.77,91.9 218.11,209.65 314.26,327.19l-337.99 327.27c-50.68,-50.4 -292.26,-279.5 -326.9,-363.34zm345.91 -1089.54c-233.63,60.4 -119.99,314.31 -273.6,569.99 -96.18,160.1 -248.7,304.46 -480.43,361.55 -93.56,23.05 -274.91,32.08 -329.64,93.81 -105.55,119.05 4.62,211.38 122.7,232.78 816.33,147.77 698.99,544.93 818.84,867.5 37.41,100.65 173.64,156.63 236.28,26.49 36.61,-76.04 48.23,-239.9 82.76,-337.47 72.16,-203.95 218.65,-365.65 387.95,-456.7 225.54,-121.33 550.77,-27.21 520.57,-291.07 -119.28,-147.46 -457.58,-67.57 -729.81,-355.39 -245,-258.99 -167,-606.89 -355.62,-711.5z"/>
  <path class="fil0" d="M1102.87 2766.05c95.27,37.63 329.64,326.42 349.35,373.43 -45.15,75.07 -225.46,296.73 -344.42,316.65 -87.8,-33.79 -298.1,-258.87 -341.66,-340.61l336.73 -349.47zm1097.63 244c-308.3,-149.34 -460.49,-9.83 -744.86,-341.83 -73.22,-85.49 -148.57,-220.02 -177.6,-363.28 -27.61,-136.29 -36.27,-429.32 -244.03,-280.3 -94.3,67.63 -42.33,513.42 -350.58,740.07 -99.2,72.93 -219.1,142.16 -370.98,172.61 -123.38,24.76 -419.72,49.23 -272.21,250.81 53.13,72.62 809.67,71.56 917.04,723.63 21.31,129.42 48.97,422.54 244.26,264.51 98.31,-79.57 21.2,-771.55 729.13,-910.43 211.81,-41.56 334.31,-4.7 269.81,-255.8z"/>
 </g>
</svg>
