<svg id="Capa_1" data-name="Capa 1" xmlns="http://www.w3.org/2000/svg" viewBox="0 0 472.92 534.38"><defs><style>.cls-1{fill:#1f1f1d;}.cls-2{font-size:53.24px;}.cls-2,.cls-3,.cls-4{fill:#010101;font-weight:300;}.cls-2,.cls-4{font-family:Gilroy-Light, Gilroy;}.cls-3{font-size:53.24px;font-family:SFUIText-Light, SF UI  Text;}.cls-4{font-size:53.24px;}</style></defs><path class="cls-1" d="M372.4,189.86v153.5h-46V328.93c-10.13,11.66-25.17,18.73-45.74,18.73-40.21,0-73.37-35.31-73.37-81.05s33.16-81.05,73.37-81.05c20.57,0,35.61,7.06,45.74,18.73V189.86Zm-46,76.75c0-23-15.34-37.45-36.53-37.45s-36.53,14.43-36.53,37.45,15.35,37.45,36.53,37.45S326.35,289.63,326.35,266.61Z" transform="translate(-56.4 -40.01)"/><path class="cls-1" d="M327.43,355.59c-2.82,16.71-15.28,25.17-34.08,25.17-20.26,0-29.17-8.59-35-19.34l-39.29,22.72c14.12,25.17,40.83,37.15,72.76,37.15,38.72,0,76.83-19.66,80.66-65.7Z" transform="translate(-56.4 -40.01)"/><text class="cls-2" transform="translate(75.41 318.82) rotate(-104.3)">D</text><text class="cls-2" transform="translate(66.58 282.8) rotate(-93.57)">E</text><text class="cls-2" transform="translate(64.7 255.88) rotate(-84.16)">S</text><text class="cls-2" transform="translate(68.06 226.77) rotate(-76.66)">I</text><text class="cls-2" transform="translate(69.27 215.95) rotate(-68.91)">G</text><text class="cls-2" transform="translate(84.01 178.05) rotate(-56.27)">N</text><text class="cls-2" transform="translate(104.2 149.08) rotate(-48.16)"> </text><text class="cls-2" transform="matrix(0.76, -0.65, 0.65, 0.76, 112.35, 138.81)">&amp;</text><text class="cls-2" transform="matrix(0.84, -0.54, 0.54, 0.84, 138.38, 117.5)"> </text><text class="cls-2" transform="matrix(0.9, -0.44, 0.44, 0.9, 149.24, 109.97)">T</text><text class="cls-2" transform="translate(173.84 97.97) rotate(-16.74)">E</text><text class="cls-2" transform="translate(199.1 89.62) rotate(-5.9)">C</text><text class="cls-2" transform="translate(237.1 85.69) rotate(6.33)">H</text><text class="cls-2" transform="matrix(0.97, 0.25, -0.25, 0.97, 272.12, 90.27)"> </text><text class="cls-2" transform="translate(284.99 92.96) rotate(21.38)">S</text><text class="cls-2" transform="translate(311.01 102.99) rotate(30.44)">T</text><text class="cls-2" transform="translate(334.74 116.43) rotate(40.72)">U</text><text class="cls-2" transform="matrix(0.61, 0.79, -0.79, 0.61, 360.57, 138.23)">D</text><text class="cls-2" transform="translate(382.7 168.43) rotate(60.52)">I</text><text class="cls-2" transform="matrix(0.35, 0.94, -0.94, 0.35, 389.18, 177.25)">O</text><text class="cls-3" transform="matrix(0.86, 0.52, -0.52, 0.86, 122.17, 430.92)">·</text><text class="cls-3" transform="translate(137.91 440.29) rotate(26.36)"> </text><text class="cls-4" transform="translate(153.33 448.4) rotate(18.96)">A</text><text class="cls-4" transform="matrix(0.98, 0.18, -0.18, 0.98, 185.15, 459.23)">Y</text><text class="cls-4" transform="translate(220.12 464.63) rotate(2.64)"> </text><text class="cls-4" transform="matrix(0.99, -0.12, 0.12, 0.99, 239.46, 466.25)">G</text><text class="cls-4" transform="translate(287.68 459.54) rotate(-19.16)">U</text><text class="cls-4" transform="translate(326.14 445.33) rotate(-29.49)">T</text><text class="cls-4" transform="matrix(0.81, -0.59, 0.59, 0.81, 354.31, 428.57)">I</text><text class="cls-4" transform="translate(367.47 419.23) rotate(-42.91)">E</text><text class="cls-4" transform="matrix(0.6, -0.8, 0.8, 0.6, 391.99, 396.05)">R</text><text class="cls-3" transform="matrix(0.49, -0.87, 0.87, 0.49, 413.64, 365.93)"> </text><text class="cls-3" transform="translate(421.61 351.68) rotate(-65.45)">·</text></svg>