<svg id="Capa_1" data-name="Capa 1" xmlns="http://www.w3.org/2000/svg" viewBox="0 0 146.36 165.41"><defs><style>.cls-1,.cls-2,.cls-3,.cls-4{fill:#fff;}.cls-2{font-size:16.48px;}.cls-2,.cls-4{font-family:Gilroy-Light, Gilroy;}.cls-2,.cls-3,.cls-4{font-weight:300;}.cls-3{font-size:16.48px;font-family:SFUIText-Light, SF UI  Text;}.cls-4{font-size:16.48px;}</style></defs><path class="cls-1" d="M104.58,46.55V94.07H90.32V89.6c-3.13,3.62-7.79,5.8-14.16,5.8-12.45,0-22.71-10.93-22.71-25.09S63.71,45.22,76.16,45.22c6.37,0,11,2.18,14.16,5.79V46.55ZM90.32,70.31c0-7.13-4.75-11.6-11.31-11.6S67.7,63.18,67.7,70.31,72.46,81.9,79,81.9,90.32,77.44,90.32,70.31Z" transform="translate(-6.78 -0.16)"/><path class="cls-1" d="M90.66,97.86c-.88,5.17-4.73,7.79-10.55,7.79-6.28,0-9-2.66-10.84-6l-12.17,7c4.38,7.79,12.65,11.5,22.53,11.5,12,0,23.79-6.09,25-20.34Z" transform="translate(-6.78 -0.16)"/><text class="cls-2" transform="matrix(-0.25, -0.97, 0.97, -0.25, 23.32, 98.72)">D</text><text class="cls-2" transform="matrix(-0.06, -1, 1, -0.06, 20.58, 87.56)">E</text><text class="cls-2" transform="translate(20 79.22) rotate(-84.16)">S</text><text class="cls-2" transform="matrix(0.23, -0.97, 0.97, 0.23, 21.03, 70.25)">I</text><text class="cls-2" transform="translate(21.41 66.86) rotate(-68.92)">G</text><text class="cls-2" transform="translate(25.97 55.14) rotate(-56.29)">N</text><text class="cls-2" transform="matrix(0.67, -0.75, 0.75, 0.67, 32.22, 46.16)"> </text><text class="cls-2" transform="translate(34.74 42.98) rotate(-40.37)">&amp;</text><text class="cls-2" transform="translate(42.78 36.39) rotate(-32.63)"> </text><text class="cls-2" transform="translate(46.15 34.06) rotate(-25.84)">T</text><text class="cls-2" transform="matrix(0.96, -0.29, 0.29, 0.96, 53.78, 30.33)">E</text><text class="cls-2" transform="translate(61.58 27.75) rotate(-5.93)">C</text><text class="cls-2" transform="translate(73.34 26.52) rotate(6.29)">H</text><text class="cls-2" transform="matrix(0.97, 0.25, -0.25, 0.97, 84.19, 27.94)"> </text><text class="cls-2" transform="translate(88.17 28.77) rotate(21.35)">S</text><text class="cls-2" transform="translate(96.22 31.86) rotate(30.4)">T</text><text class="cls-2" transform="translate(103.56 36.01) rotate(40.66)">U</text><text class="cls-2" transform="matrix(0.61, 0.79, -0.79, 0.61, 111.58, 42.77)">D</text><text class="cls-2" transform="translate(118.44 52.12) rotate(60.49)">I</text><text class="cls-2" transform="matrix(0.35, 0.94, -0.94, 0.35, 120.44, 54.84)">O</text><text class="cls-3" transform="matrix(0.86, 0.52, -0.52, 0.86, 37.79, 133.41)">·</text><text class="cls-3" transform="translate(42.66 136.31) rotate(26.36)"> </text><text class="cls-4" transform="translate(47.45 138.83) rotate(18.95)">A</text><text class="cls-4" transform="translate(57.3 142.18) rotate(10.11)">Y</text><text class="cls-4" transform="translate(68.14 143.85) rotate(2.62)"> </text><text class="cls-4" transform="translate(74.13 144.35) rotate(-6.69)">G</text><text class="cls-4" transform="matrix(0.94, -0.33, 0.33, 0.94, 89.07, 142.26)">U</text><text class="cls-4" transform="translate(100.99 137.85) rotate(-29.54)">T</text><text class="cls-4" transform="translate(109.71 132.65) rotate(-36.27)">I</text><text class="cls-4" transform="translate(113.77 129.76) rotate(-42.95)">E</text><text class="cls-4" transform="matrix(0.6, -0.8, 0.8, 0.6, 121.37, 122.57)">R</text><text class="cls-3" transform="translate(128.06 113.25) rotate(-60.7)"> </text><text class="cls-3" transform="translate(130.53 108.82) rotate(-65.51)">·</text></svg>