<svg id="Capa_1" data-name="Capa 1" xmlns="http://www.w3.org/2000/svg" viewBox="0 0 70.93 80.15"><defs><style>.cls-1,.cls-2,.cls-3,.cls-4{fill:#fff;}.cls-2{font-size:8px;}.cls-2,.cls-4{font-family:Gilroy-Light, Gilroy;}.cls-2,.cls-3,.cls-4{font-weight:300;}.cls-3{font-size:8px;font-family:SFUIText-Light, SF UI  Text;}.cls-4{font-size:8px;}</style></defs><path class="cls-1" d="M55.82,23.79V46.84H48.91V44.68A8.69,8.69,0,0,1,42,47.49c-6,0-11-5.3-11-12.17s5-12.18,11-12.18A8.69,8.69,0,0,1,48.91,26V23.79ZM48.91,35.32a5.27,5.27,0,0,0-5.49-5.63,5.27,5.27,0,0,0-5.49,5.63,5.27,5.27,0,0,0,5.49,5.62A5.27,5.27,0,0,0,48.91,35.32Z" transform="translate(-8.36 -1.35)"/><path class="cls-1" d="M49.07,48.68c-.43,2.51-2.3,3.78-5.12,3.78-3.05,0-4.38-1.29-5.26-2.9L32.79,53c2.12,3.78,6.13,5.58,10.93,5.58,5.82,0,11.54-2.95,12.11-9.87Z" transform="translate(-8.36 -1.35)"/><text class="cls-2" transform="translate(11.32 47.81) rotate(-104.28)">D</text><text class="cls-2" transform="translate(10 42.43) rotate(-93.63)">E</text><text class="cls-2" transform="translate(9.71 38.38) rotate(-84.21)">S</text><text class="cls-2" transform="translate(10.21 34.02) rotate(-76.66)">I</text><text class="cls-2" transform="matrix(0.36, -0.93, 0.93, 0.36, 10.39, 32.4)">G</text><text class="cls-2" transform="matrix(0.55, -0.83, 0.83, 0.55, 12.6, 26.7)">N</text><text class="cls-2" transform="translate(15.61 22.37) rotate(-48.29)"> </text><text class="cls-2" transform="translate(16.84 20.81) rotate(-40.46)">&amp;</text><text class="cls-2" transform="translate(20.72 17.62) rotate(-32.76)"> </text><text class="cls-2" transform="translate(22.36 16.47) rotate(-25.92)">T</text><text class="cls-2" transform="translate(26.05 14.67) rotate(-16.88)">E</text><text class="cls-2" transform="translate(29.81 13.41) rotate(-6.11)">C</text><text class="cls-2" transform="matrix(0.99, 0.11, -0.11, 0.99, 35.51, 12.8)">H</text><text class="cls-2" transform="translate(40.77 13.47) rotate(14.09)"> </text><text class="cls-2" transform="translate(42.7 13.86) rotate(21.14)">S</text><text class="cls-2" transform="translate(46.62 15.36) rotate(30.22)">T</text><text class="cls-2" transform="matrix(0.76, 0.65, -0.65, 0.76, 50.17, 17.35)">U</text><text class="cls-2" transform="translate(54.07 20.6) rotate(52.2)">D</text><text class="cls-2" transform="matrix(0.5, 0.87, -0.87, 0.5, 57.41, 25.12)">I</text><text class="cls-2" transform="translate(58.38 26.41) rotate(68.97)">O</text><text class="cls-3" transform="matrix(0.86, 0.52, -0.52, 0.86, 18.36, 64.67)">·</text><text class="cls-3" transform="translate(20.74 66.08) rotate(26.29)"> </text><text class="cls-4" transform="translate(23.07 67.3) rotate(18.88)">A</text><text class="cls-4" transform="translate(27.87 68.92) rotate(10)">Y</text><text class="cls-4" transform="matrix(1, 0.04, -0.04, 1, 33.13, 69.72)"> </text><text class="cls-4" transform="matrix(0.99, -0.12, 0.12, 0.99, 36.07, 69.96)">G</text><text class="cls-4" transform="translate(43.33 68.92) rotate(-19.38)">U</text><text class="cls-4" transform="matrix(0.87, -0.5, 0.5, 0.87, 49.12, 66.75)">T</text><text class="cls-4" transform="translate(53.35 64.21) rotate(-36.53)">I</text><text class="cls-4" transform="matrix(0.73, -0.69, 0.69, 0.73, 55.33, 62.78)">E</text><text class="cls-4" transform="matrix(0.6, -0.8, 0.8, 0.6, 59.02, 59.25)">R</text><text class="cls-3" transform="translate(62.25 54.69) rotate(-61.1)"> </text><text class="cls-3" transform="matrix(0.41, -0.91, 0.91, 0.41, 63.44, 52.53)">·</text></svg>