<?xml version="1.0" encoding="UTF-8"?>
<!DOCTYPE svg PUBLIC "-//W3C//DTD SVG 1.1//EN" "http://www.w3.org/Graphics/SVG/1.1/DTD/svg11.dtd">
<!-- Creator: CorelDRAW 2018 (64 Bit Versión de evaluación) -->
<svg xmlns="http://www.w3.org/2000/svg" xml:space="preserve" width="45.7803mm" height="44.0802mm" version="1.1" style="shape-rendering:geometricPrecision; text-rendering:geometricPrecision; image-rendering:optimizeQuality; fill-rule:evenodd; clip-rule:evenodd"
viewBox="0 0 1573.45 1515.02"
 xmlns:xlink="http://www.w3.org/1999/xlink">
 <defs>
  <style type="text/css">
   <![CDATA[
    .fil1 {fill:black}
    .fil0 {fill:#1E1F1C}
   ]]>
  </style>
 </defs>
 <g id="Capa_x0020_1">
  <metadata id="CorelCorpID_0Corel-Layer"/>
  <path class="fil0" d="M901.52 638.64c-116.11,17.1 -218.76,125.03 -197.6,265.41 17.59,116.67 124.51,217.11 265.05,196.92 118.25,-16.99 217.59,-124.06 198.1,-266.63 -15.49,-113.27 -125.75,-216.28 -265.54,-195.7zm-173.35 36.29c-192.95,196.66 4.29,547.62 280.58,468.88 44.09,-12.56 69.62,-27.75 102.56,-49.79 10.32,6.9 17.37,15.51 29.88,23.89 -14.41,61.8 -33.16,45.99 44.08,123.17l191.22 191.11c51.9,52.55 84.97,18.1 122.53,-19.43 87.02,-86.96 59.75,-88.09 -70.22,-217.96 -32.6,-32.58 -63.01,-62.97 -95.62,-95.55 -44.33,-44.3 -60.82,-80.04 -123.26,-47.02 -7.34,-4.91 -24.81,-25.28 -29.88,-32.84 4.8,-20.59 52.45,-83.9 37.24,-186.51 -35.11,-236.93 -316.7,-333.67 -489.11,-157.93z"/>
  <path class="fil0" d="M728.84 1404.54l143.43 0c0,38.38 -34.56,70.89 -71.71,70.89 -38.05,0 -70.65,-32.26 -71.72,-70.89zm-38.84 -74.64l221.12 0 0 32.84 -221.12 0 0 -32.84zm-6.53 -74.57l233.62 -0.08 -3.54 29.78c-22.27,5.92 -202.37,5.7 -226.54,0.08l-3.54 -29.78zm-313.19 -501.69l0 56.73c0,109.31 61.72,215.45 126.24,279.92 33.41,33.38 121.97,89.73 124.75,123.17l-47.81 0 3.15 38.8c61.61,0.02 68.56,-8.37 68.56,35.84l-32.87 0 0 38.82c19.3,4.49 12.72,2.99 35.86,2.99 0,61.74 -6.72,74.64 38.84,74.64 0,56.15 49.87,110.48 104.58,110.48l17.93 0c54.83,0 104.58,-54.75 104.58,-110.48 45.56,0 38.84,-12.9 38.84,-74.64 23.13,0 16.56,1.51 35.85,-2.99l0 -38.82 -32.87 0c0,-20.63 -0.38,-35.1 20.63,-36.11 47.67,-2.3 51.08,14.42 51.08,-29.57 0,-14.75 -33.57,-8.96 -47.81,-8.96 1.58,-18.95 13.49,-15.39 14.94,-32.84 -9.88,-2.09 -29.96,0 -47.81,0 -7.52,14.19 -10.02,32.84 -29.88,32.84l-233.07 0c-17.05,0 -18.08,-9.78 -24.1,-20.7 -45.97,-83.38 -100.73,-85.92 -161.59,-161 -125.32,-154.57 -118.33,-380.46 29.55,-529.69 132.16,-133.37 353.05,-146.94 506.62,-32.95 29.25,21.71 53.01,45.29 75.88,73.47 14.58,17.96 49.27,74.2 54.72,97.6 52.06,0 44.89,5.21 29.05,-35 -8.56,-21.74 -20.29,-40.03 -32.03,-57.57 -51.06,-76.3 -110.78,-128.57 -196.32,-165.11 -156.55,-66.87 -349.23,-25.77 -466.28,91.21 -34.19,34.17 -63.64,71.18 -86.42,116.68 -17.22,34.4 -42.81,113.66 -42.81,163.24z"/>
  <path class="fil1" d="M938 1046.24c0,19.97 86.38,-15.36 124.42,-64.53 36.31,-46.92 39.92,-72.73 39.92,-153.44 0,-19.47 -3.21,-53.74 -20.91,-53.74 -17.94,4.17 5.06,86.48 -25.5,154.21 -39.3,87.1 -132.7,97.23 -117.93,117.5z"/>
  <path class="fil0" d="M1324.77 768.56c3.41,21.57 33.51,17.5 55.47,17.46l149.45 0.05c21.43,0.08 47.39,0.04 43.35,-25.53 -3.53,-22.28 -33.68,-17.58 -55.34,-17.56l-149.45 -0.02c-21.12,0.01 -47.64,-0.8 -43.47,25.59z"/>
  <path class="fil0" d="M248.68 768.56c-3.41,21.57 -33.51,17.5 -55.47,17.46l-149.45 0.05c-21.43,0.08 -47.39,0.04 -43.35,-25.53 3.53,-22.28 33.68,-17.58 55.34,-17.56l149.45 -0.02c21.12,0.01 47.64,-0.8 43.47,25.59z"/>
  <path class="fil0" d="M1245.02 497.78c14.14,16.65 37.72,-2.51 56.45,-13.97l127.62 -77.76c18.34,-11.09 40.49,-24.64 23.72,-44.36 -14.61,-17.19 -37.91,2.52 -56.39,13.82l-127.61 77.79c-18.02,11.01 -41.09,24.11 -23.79,44.48z"/>
  <path class="fil0" d="M328.43 497.78c-14.14,16.65 -37.72,-2.51 -56.45,-13.97l-127.62 -77.76c-18.34,-11.09 -40.49,-24.64 -23.72,-44.36 14.61,-17.19 37.91,2.52 56.39,13.82l127.61 77.79c18.02,11.01 41.09,24.11 23.79,44.48z"/>
  <path class="fil0" d="M1050.88 322.46c19.88,9.04 33.07,-18.32 45.13,-36.67l82.38 -124.69c11.87,-17.84 26.15,-39.52 2.58,-50.24 -20.54,-9.33 -33.23,18.41 -45.14,36.51l-82.36 124.71c-11.63,17.64 -26.92,39.31 -2.6,50.38z"/>
  <path class="fil0" d="M522.56 322.46c-19.88,9.04 -33.07,-18.32 -45.13,-36.67l-82.38 -124.69c-11.87,-17.84 -26.15,-39.52 -2.58,-50.24 20.54,-9.33 33.23,18.41 45.14,36.51l82.36 124.71c11.63,17.64 26.92,39.31 2.6,50.38z"/>
  <path class="fil0" d="M808.12 248.69c21.64,-2.95 18.2,-33.13 18.62,-55.08l3.2 -149.41c0.53,-21.42 1.04,-47.38 -24.61,-43.88 -22.35,3.06 -18.29,33.3 -18.72,54.96l-3.17 149.41c-0.43,21.12 -1.81,47.61 24.67,44z"/>
 </g>
</svg>
