<?xml version="1.0" encoding="UTF-8"?>
<!DOCTYPE svg PUBLIC "-//W3C//DTD SVG 1.1//EN" "http://www.w3.org/Graphics/SVG/1.1/DTD/svg11.dtd">
<!-- Creator: CorelDRAW 2018 (64 Bit Versión de evaluación) -->
<svg xmlns="http://www.w3.org/2000/svg" xml:space="preserve" width="35.4199mm" height="46.1479mm" version="1.1" style="shape-rendering:geometricPrecision; text-rendering:geometricPrecision; image-rendering:optimizeQuality; fill-rule:evenodd; clip-rule:evenodd"
viewBox="0 0 1333.77 1737.74"
 xmlns:xlink="http://www.w3.org/1999/xlink">
 <defs>
  <style type="text/css">
   <![CDATA[
    .fil0 {fill:#1E1F1C}
   ]]>
  </style>
 </defs>
 <g id="Capa_x0020_1">
  <metadata id="CorelCorpID_0Corel-Layer"/>
  <path class="fil0" d="M41.01 1629.67l488.59 0c24.69,14.26 -3.51,26.81 52.7,26.39l163.8 -0.03c45.55,0.23 34.49,4 52.35,-26.52l492.59 -0.67 0.48 65.66 -1248.4 0.89 -2.11 -65.72zm54.48 -41.8c-5.38,-72.27 -0.63,-163.72 -0.63,-238.09 0,-79.6 0,-159.21 0,-238.81 0,-41.31 -11.02,-208.6 11.25,-227.27 20.92,-17.54 188.31,-4.91 230.54,-9.26l-1.56 -39.48c-39.64,-2.98 -88.53,-0.55 -129.19,-0.55 -100.85,0 -151.99,-11.91 -151.83,109.72l0 386.01c0,82.39 4.17,176.18 -0.44,257.16 -51.4,8.79 -53.41,-9.76 -53.2,53.59 0.11,34.78 -5.16,68.7 18.18,85.86 22.63,16.63 161.44,9.41 200.38,9.41l1047.64 0.06c36.54,0.18 60.74,-6.5 65.23,-39.93 3.02,-22.53 2.77,-83.25 -3.25,-101.33 -14.08,-7.46 -30.23,-6.4 -49.34,-6.4 -7.91,-70.7 -1.02,-186.19 -1.02,-261.69l0.04 -389.29c1.66,-89.55 -37.64,-102.45 -96.78,-103.57 -49.37,-0.94 -140.12,-0.05 -184.48,0.27l-0.23 39.13c42.86,4.08 149.93,-2.54 205.65,2.71 11.77,1.11 20.57,4.45 25.2,8.82 18.46,17.37 10.16,78.27 10.77,108.26 0.8,39.32 0.73,78.4 0.73,117.77 0,61.94 6.87,450.62 0.17,476.44l-1143.83 0.46z"/>
  <path class="fil0" d="M621.68 1094.62l88.39 0c-4.19,17.95 -17.98,35.98 -39.29,35.98l-3.27 0c-28.65,0 -36.03,-17.46 -45.83,-35.98zm117.86 -55.61l0 9.82 -144.04 0c4.42,-16.53 22.03,-9.82 65.48,-9.82 26.19,0 52.38,0 78.57,0zm-147.32 -52.34l150.59 0 0 9.81 -150.59 0 0 -9.81zm75.3 -137.4c-7.11,-5.2 -15.74,-40.5 -24.43,-60.8 -13.47,-31.49 -10.31,-18.9 40.8,-30.79 -6.45,27.64 -16.37,58.05 -16.37,91.59zm-147.32 -170.11c14.27,3.32 32.4,19.17 36.01,32.71 -8.97,-2.09 -14.74,-5.34 -21.72,-11.01 -10.33,-8.41 -8.8,-11.26 -14.29,-21.7zm258.63 -29.44l0 0zm0 0c2.24,-9.33 -0.5,-4.92 6.55,-9.81 -2.24,9.33 0.5,4.92 -6.55,9.81zm6.55 -9.81l1.8 -7.03 -1.8 7.03zm-170.24 85.05c-25.56,-48.26 -48.68,-91.59 -108.03,-91.59 -61.53,0 -32.74,128.3 81.84,130.85 3.17,38.12 39.29,46.72 39.29,179.92l-52.38 0c-12.14,-52.09 -84.01,-81.69 -114.62,-121 -54,-69.35 -65.44,-107.48 -65.44,-202.86 0,-65.52 42.55,-132.47 84.24,-174.26 100.43,-100.64 267.17,-98.18 376.61,1.63 73.01,66.58 103.9,188.14 65.77,289.94 -25.95,69.27 -57.18,96.68 -112.3,139.68 -80.09,62.48 -12.19,66.87 -103.31,66.87 0,-63.62 -2.03,-92.34 13.71,-156.41 12.95,-52.7 7.49,-41.5 46.59,-67.94 19.99,-13.52 46.2,-36.97 57.56,-56.98 7.5,-13.2 11.52,-28.03 6.11,-45.18 -10.17,-32.21 -27.71,-30.06 -45.4,-30.06 -29.64,0 -57.14,61.99 -68.77,85.04 -10.31,20.45 -7.75,34.15 -33.95,41.31 -20.67,5.65 -44.79,9.15 -67.52,11.04zm-265.17 -88.33c0,70.54 25.17,142.05 54.27,184.58 21.29,31.12 35.03,41.69 57.85,63.23 17.5,16.52 56.05,36.79 61.39,59.7 -26.53,0 -26.19,-4.29 -26.19,22.9 0,27.32 21.88,19.63 49.11,19.63l0 9.81 -19.64 0c-1.97,23.61 -6.81,10.05 0,39.26 8.43,4.73 8.79,3.27 22.92,3.27 0,29.77 -4.55,54.86 29.46,55.61 0.85,38.06 40.08,78.51 78.57,78.51 41.63,0 72.96,-10.42 90.68,-53.33 2.33,-5.64 4.77,-17.52 6.27,-19.9 16.45,-26.03 27.45,19.01 27.45,-60.9 14.75,0 29.47,3.47 29.47,-19.63 0,-33.49 -19.91,-13.89 -26.19,-29.44l49.19 -5.48 -0.09 -40.32 -26.19 0c5.45,-20.42 69.67,-56.4 115.06,-114.01 79.1,-100.37 75.98,-265.39 1.4,-368.76 -9.73,-13.49 -22.97,-30 -34.1,-41.17 -19.92,-19.99 -59.03,-47.81 -86.72,-60.55 -125.94,-57.96 -266.43,-32.64 -363.16,63.51 -41.16,40.91 -90.82,133.44 -90.82,213.48z"/>
  <path class="fil0" d="M1161.35 1516.66c17.56,-12.07 10.42,-62.15 10.42,-88.36 0,-92.96 -4.58,-209.86 -1.69,-294.42 6.73,-196.87 8.72,-191.47 -99.89,-191.46 -105.85,0 -101.96,-14.17 -99.56,39.23l158.78 1.66 0.36 496.55 -925.84 0.31 -0.66 -496.41 158.76 -1.36 0.82 -39.99c-37.86,0.01 -74.49,0.03 -111.12,0 -111.79,-0.07 -89.26,11.49 -89.26,243.81 0,74.15 0,148.3 0,222.45 0,132.19 -20.83,112.62 112.18,112.62 91.45,0 870.27,5.84 886.7,-4.63z"/>
  <path class="fil0" d="M81.51 358.57c0,16.8 33.36,31.85 46.02,39.08 22.07,12.6 120.6,73.94 137.83,74.48 11.2,0.35 22.4,-10.32 22.4,-21.96 0,-23.87 -51.13,-44.63 -84.13,-63.15 -27.37,-15.36 -78.99,-51.35 -102.48,-51.35 -9.25,0 -19.64,13.64 -19.64,22.9z"/>
  <path class="fil0" d="M863.93 270.25c0,21.57 7.48,26.17 22.92,26.17 18.85,0 48.67,-64.04 61.58,-85.67 7.18,-12.03 53,-89.84 53,-97.52 0,-11.09 -11.82,-22.9 -22.92,-22.9 -21.96,0 -26.82,21.26 -35.81,36.18 -9.8,16.26 -17.62,30.18 -27.8,47.47 -8.68,14.75 -50.97,83.87 -50.97,96.27z"/>
  <path class="fil0" d="M1047.27 466.53c13.5,0 116.84,-64.5 140.58,-78.7 13.62,-8.15 36.2,-15.38 36.2,-35.79 0,-54.8 -84.78,9.31 -130.32,36.61 -18.36,11.01 -40.1,20.49 -56.48,31.89 -23.29,16.21 -19.57,45.99 10.02,45.99z"/>
  <path class="fil0" d="M300.85 113.23c0,4.77 93.46,179.92 111.31,179.92 58.3,0 13.66,-54.92 -22.27,-115.14 -15.69,-26.31 -44.76,-87.68 -62.85,-87.68 -14.01,0 -26.19,10.08 -26.19,22.9z"/>
  <path class="fil0" d="M628.22 24.9l0 173.38c0,43.16 45.83,35.97 45.83,6.54l0 -179.92c0,-33.2 -45.83,-33.2 -45.83,0z"/>
 </g>
</svg>
